<?xml version="1.0" encoding="UTF-8" standalone="no"?>
<!-- Created with Inkscape (http://www.inkscape.org/) -->

<svg
   width="210mm"
   height="297mm"
   viewBox="0 0 210 297"
   version="1.1"
   id="svg5"
   xml:space="preserve"
   xmlns="http://www.w3.org/2000/svg"
   xmlns:svg="http://www.w3.org/2000/svg"><defs
     id="defs2" /><g
     id="layer1"><path
       style="fill:#000000;stroke-width:0.264583"
       d="m 114.79798,156.60361 c -9.6261,-3.48992 -10.63191,-4.01238 -13.38015,-6.95026 -2.691771,-2.87751 -6.697531,-8.25391 -8.70683,-11.68603 -2.752047,-4.70082 -4.927409,-6.98617 -8.351517,-8.7738 -1.243206,-0.64904 -2.999978,-1.77605 -3.903935,-2.50447 -1.500293,-1.20895 -1.764527,-1.32485 -3.031291,-1.32964 -5.389457,-0.0203 -9.996427,-1.85929 -13.585238,-5.42274 -2.788983,-2.76927 -4.566055,-6.19568 -5.418225,-10.44701 -0.736954,-3.67653 -0.615471,-9.862259 0.25581,-13.025329 3.707329,-13.458981 17.8826,-20.178822 27.981595,-13.264781 l 1.709428,1.17032 1.959234,-0.40469 c 3.734043,-0.77129 7.036382,-0.32621 10.580499,1.42601 4.93463,2.4397 8.89328,7.216 10.82669,13.062921 2.14305,6.480869 1.34941,14.463399 -2.04416,20.560549 -0.98541,1.77047 -3.29559,4.9248 -4.24839,5.8008 -0.38373,0.35279 -0.69768,0.72063 -0.69768,0.81743 0,0.51536 1.83552,0.88686 5.29166,1.07101 2.11005,0.11243 4.18166,0.29109 4.60356,0.39702 l 0.76711,0.19261 -0.23794,-2.3535 c -0.13087,-1.29443 -0.22599,-4.07991 -0.2114,-6.18996 0.0223,-3.22264 0.11772,-4.08703 0.59647,-5.4026 0.80407,-2.20952 1.95641,-3.89277 3.86675,-5.6482 l 1.65076,-1.51691 -0.21507,-1.71979 c -0.5934,-4.745119 1.09733,-10.03119 4.47749,-13.99883 5.12776,-6.01898 14.27126,-8.12695 21.14862,-4.87567 0.76399,0.36118 1.38907,0.75 1.38907,0.86406 0,0.11405 -0.80368,0.28459 -1.78594,0.37896 -6.37613,0.61262 -10.73752,2.38797 -14.65917,5.96718 l -1.86014,1.69772 0.84755,-1.37745 c 1.03703,-1.68539 3.20965,-4.09717 4.59896,-5.10519 1.46582,-1.06354 0.66785,-0.92669 -1.81576,0.31139 -4.36014,2.17354 -8.04599,6.13284 -9.17762,9.858501 -0.69157,2.276829 -0.6023,6.087629 0.17973,7.673319 0.27047,0.54842 0.57277,0.96514 0.67178,0.92605 0.099,-0.0391 0.76051,-0.8373 1.47,-1.77378 0.70949,-0.93649 1.41248,-1.74131 1.5622,-1.78849 0.14972,-0.0472 0.43388,0.46177 0.63148,1.13099 0.48363,1.63797 1.81736,3.51504 2.93982,4.13748 1.38694,0.7691 3.5843,0.49398 6.51303,-0.81547 2.93381,-1.31172 4.90936,-1.89568 6.29408,-1.86051 l 1.07645,0.0273 -0.97839,0.26026 c -1.09666,0.29172 -2.3289,1.30346 -2.3289,1.91217 0,0.67656 1.62837,2.30044 3.52744,3.51773 4.95642,3.17699 6.72645,7.10287 6.45918,14.32626 -0.12232,3.3058 -0.82106,7.44556 -1.25671,7.44556 -0.09,0 -1.28737,-1.11034 -2.66083,-2.46741 -2.43448,-2.40543 -4.75027,-4.07481 -5.23611,-3.77454 -0.13265,0.082 -1.40137,2.85941 -2.81938,6.17206 -7.21912,16.86481 -8.856,19.52683 -14.22829,23.13914 -2.5828,1.73668 -3.82135,2.34033 -4.74503,2.31266 -0.33209,-0.01 -3.16365,-0.94616 -6.29235,-2.08046 z m 4.4483,-5.86913 c 2.98506,-0.59206 4.58733,-1.7225 5.57517,-3.93341 0.32717,-0.73225 0.578,-1.03571 0.65609,-0.79375 0.0695,0.21544 0.23449,0.7489 0.36656,1.18546 0.41993,1.38812 1.1168,1.16185 3.16005,-1.02603 3.13573,-3.35771 4.73386,-7.21377 5.03012,-12.13699 0.0854,-1.41883 0.23854,-2.57969 0.34034,-2.57969 0.10181,0 0.40315,0.24094 0.66965,0.53542 0.2665,0.29448 0.56856,0.44331 0.67124,0.33073 0.10268,-0.11258 0.5672,-1.44375 1.03226,-2.95817 2.48677,-8.09778 2.48414,-12.28121 -0.0104,-16.49058 -1.21137,-2.04414 -1.84546,-2.53189 -2.47417,-1.90318 -0.40981,0.4098 -0.51203,0.93509 -0.43389,2.22953 0.0302,0.49945 -0.15801,0.30504 -0.76823,-0.79375 -1.47695,-2.65948 -3.07278,-3.54322 -6.09229,-3.37381 -5.06807,0.28435 -8.9117,4.11285 -9.20434,9.16809 -0.18172,3.13903 0.39231,4.80504 2.29764,6.66854 1.05125,1.02817 1.80683,1.53719 2.4651,1.66068 1.22929,0.23062 3.21943,-0.22182 4.64604,-1.05622 1.46023,-0.85407 4.17424,-3.39845 5.91952,-5.54956 0.75619,-0.93201 1.41241,-1.65703 1.45829,-1.61116 0.19698,0.19698 -1.06553,4.12351 -1.70164,5.29225 -0.86509,1.58945 -3.36763,3.93728 -5.17054,4.85088 -1.70983,0.86644 -4.15104,1.11127 -5.49237,0.55083 -0.5196,-0.21711 -1.38288,-0.77943 -1.91839,-1.24962 -1.10108,-0.96676 -1.55451,-0.9169 -2.15097,0.23653 l -0.41265,0.79799 1.391,0.89232 c 2.41788,1.55105 4.1117,3.92377 4.92248,6.89543 0.27538,1.00932 0.25421,0.99558 -1.68989,-1.09706 -3.77819,-4.06685 -5.79056,-4.95444 -12.4249,-5.48016 -4.22076,-0.33446 -5.891,-0.65451 -7.58583,-1.45362 -0.60955,-0.2874 -0.80953,-0.26239 -1.4552,0.18194 -1.672128,1.1507 -5.089462,2.24659 -8.144521,2.61183 l -1.575142,0.18831 1.745361,1.65357 c 2.919442,2.7659 6.141964,4.71581 10.054522,6.0839 l 1.93373,0.67616 -3.54576,-0.17472 -3.545755,-0.17471 1.022445,1.15622 c 2.56051,2.89551 6.74883,6.87113 8.27945,7.85898 3.79679,2.45044 7.38093,3.07844 12.15979,2.1306 z m 30.49464,-28.62837 c -0.71543,-2.8684 -2.02024,-5.41985 -3.16592,-6.19072 -1.63474,-1.09992 -3.29852,-0.57932 -3.61968,1.13261 -0.31211,1.66372 1.10886,4.02641 4.36531,7.25832 l 2.79922,2.77813 0.0806,-1.40647 c 0.0461,-0.80461 -0.15054,-2.3331 -0.45951,-3.57187 z m -71.205747,-1.73803 c -0.581919,-1.34977 -1.375386,-3.4864 -1.763263,-4.74805 -0.633415,-2.06033 -0.704267,-2.69806 -0.695788,-6.26267 0.0076,-3.18862 0.118671,-4.36852 0.565132,-6.00253 1.425877,-5.218609 3.089817,-8.033459 7.126237,-12.05528 1.497005,-1.49159 2.657713,-2.71198 2.579354,-2.71198 -0.402188,0 -4.946914,3.58478 -6.128088,4.83369 -5.804713,6.137631 -7.449161,16.3981 -3.915029,24.42765 0.614521,1.39619 3.033328,5.22945 3.196714,5.06607 0.05102,-0.051 -0.38335,-1.19713 -0.965269,-2.5469 z m 19.883535,1.0339 c 3.671282,-1.36836 6.746072,-5.19852 7.810692,-9.72951 0.8864,-3.77249 0.0306,-9.12907 -1.9325,-12.095479 -1.1678,-1.76466 -3.29891,-3.7015 -4.97704,-4.52333 -1.434515,-0.702521 -1.842476,-0.777441 -4.233333,-0.777491 -2.409674,-5e-5 -2.799336,0.0729 -4.365625,0.817601 -0.945885,0.44971 -2.110592,1.14814 -2.588233,1.55207 -1.388631,1.17431 -3.234725,3.972909 -3.984138,6.039789 -0.616665,1.70075 -0.692825,2.29927 -0.697458,5.48111 -0.0045,3.07244 0.08007,3.80815 0.604592,5.26165 2.437349,6.7541 8.542138,10.14315 14.363043,7.97359 z m -3.185583,-8.51825 c -1.419582,-0.96184 -1.998681,-2.17522 -1.998681,-4.18782 0,-1.90864 0.62937,-3.27556 1.887815,-4.10013 1.428438,-0.93595 3.533921,-0.35175 4.438071,1.23141 l 0.50505,0.88434 -0.680937,-0.7169 c -1.696578,-1.78618 -4.270074,-0.91693 -4.968912,1.67836 -0.935538,3.47433 2.657901,6.17042 4.963731,3.72419 0.459288,-0.48725 0.586491,-0.54739 0.397095,-0.18773 -0.513083,0.97431 -1.82036,2.00284 -2.730299,2.14813 -0.673166,0.10749 -1.131896,-0.0124 -1.812933,-0.47385 z m -31.256581,3.17836 c -1.299585,-2.9508 -2.329984,-6.14828 -2.658932,-8.25108 -0.598155,-3.82367 0.310282,-9.781809 2.089835,-13.70653 1.209852,-2.66827 2.639459,-4.59099 5.626642,-7.56743 1.496973,-1.49159 2.638526,-2.71198 2.536783,-2.71198 -0.101743,0 -1.318946,0.84859 -2.704897,1.88575 -6.050401,4.52774 -8.745968,9.739761 -9.033158,17.46606 -0.155143,4.17391 0.199936,6.27364 1.607037,9.50308 0.84278,1.93426 3.085299,5.63114 3.291039,5.4254 0.05557,-0.0556 -0.283882,-0.97505 -0.754349,-2.04327 z"
       id="path326" /></g></svg>
